<svg width="800" height="222" viewBox="0 0 800 222" fill="none" xmlns="http://www.w3.org/2000/svg">
<rect width="800" height="222" fill="white"/>
<path d="M235.144 163V73.4H271.624C275.805 74.936 279.517 77.624 282.76 81.464C286.003 85.304 287.624 89.9547 287.624 95.416C287.624 105.059 284.467 111.8 278.152 115.64V116.152C286.003 120.504 289.928 127.331 289.928 136.632C289.928 147.299 284.509 156.088 273.672 163H235.144ZM252.552 110.392H265.224C268.979 108.088 270.856 104.589 270.856 99.896C270.856 95.2027 269.107 91.4907 265.608 88.76H252.552V110.392ZM252.552 148.152H265.736C267.272 147.043 268.637 145.293 269.832 142.904C271.112 140.515 271.752 138.125 271.752 135.736C271.752 133.347 271.24 131.171 270.216 129.208C269.192 127.245 267.912 125.795 266.376 124.856H252.552V148.152ZM328.197 111.032H318.597C317.317 112.568 316.25 114.701 315.397 117.432C314.629 120.163 314.245 122.808 314.245 125.368H332.549C332.72 122.808 332.378 120.163 331.525 117.432C330.672 114.616 329.562 112.483 328.197 111.032ZM345.605 149.56V163H313.093C307.12 158.989 302.896 154.04 300.421 148.152C298.032 142.179 296.837 136.163 296.837 130.104C296.837 116.109 302.128 105.272 312.709 97.592H333.445C339.162 101.773 343.045 106.211 345.093 110.904C347.141 115.597 348.165 120.333 348.165 125.112C348.165 129.891 347.781 133.987 347.013 137.4H315.141C315.397 139.363 316.122 141.624 317.317 144.184C318.597 146.659 319.962 148.451 321.413 149.56H345.605ZM391.728 134.456V111.032H376.368V138.552C376.368 143.757 377.264 147.427 379.056 149.56H386.864V163H368.688C364.165 158.819 361.435 154.296 360.496 149.432C359.728 145.336 359.344 140.344 359.344 134.456V111.032H350.512V97.592H359.344V79.8H376.368V97.592H391.728V79.8H408.752V97.592H419.248V111.032H408.752V138.552C408.752 143.757 409.648 147.427 411.44 149.56H419.248V163H401.072C396.549 158.819 393.819 154.296 392.88 149.432C392.112 145.336 391.728 140.344 391.728 134.456ZM456.197 111.032H446.597C445.317 112.568 444.25 114.701 443.397 117.432C442.629 120.163 442.245 122.808 442.245 125.368H460.549C460.72 122.808 460.378 120.163 459.525 117.432C458.672 114.616 457.562 112.483 456.197 111.032ZM473.605 149.56V163H441.093C435.12 158.989 430.896 154.04 428.421 148.152C426.032 142.179 424.837 136.163 424.837 130.104C424.837 116.109 430.128 105.272 440.709 97.592H461.445C467.162 101.773 471.045 106.211 473.093 110.904C475.141 115.597 476.165 120.333 476.165 125.112C476.165 129.891 475.781 133.987 475.013 137.4H443.141C443.397 139.363 444.122 141.624 445.317 144.184C446.597 146.659 447.962 148.451 449.413 149.56H473.605ZM484.882 163V97.592H497.042L500.242 104.504C503.655 99.896 507.965 97.592 513.17 97.592H518.162V114.744H501.906V163H484.882ZM546.644 163V73.4H583.124C587.305 74.936 591.017 77.624 594.26 81.464C597.503 85.304 599.124 89.9547 599.124 95.416C599.124 105.059 595.967 111.8 589.652 115.64V116.152C597.503 120.504 601.428 127.331 601.428 136.632C601.428 147.299 596.009 156.088 585.172 163H546.644ZM564.052 110.392H576.724C580.479 108.088 582.356 104.589 582.356 99.896C582.356 95.2027 580.607 91.4907 577.108 88.76H564.052V110.392ZM564.052 148.152H577.236C578.772 147.043 580.137 145.293 581.332 142.904C582.612 140.515 583.252 138.125 583.252 135.736C583.252 133.347 582.74 131.171 581.716 129.208C580.692 127.245 579.412 125.795 577.876 124.856H564.052V148.152ZM639.697 111.032H630.097C628.817 112.568 627.75 114.701 626.897 117.432C626.129 120.163 625.745 122.808 625.745 125.368H644.049C644.22 122.808 643.878 120.163 643.025 117.432C642.172 114.616 641.062 112.483 639.697 111.032ZM657.105 149.56V163H624.593C618.62 158.989 614.396 154.04 611.921 148.152C609.532 142.179 608.337 136.163 608.337 130.104C608.337 116.109 613.628 105.272 624.209 97.592H644.945C650.662 101.773 654.545 106.211 656.593 110.904C658.641 115.597 659.665 120.333 659.665 125.112C659.665 129.891 659.281 133.987 658.513 137.4H626.641C626.897 139.363 627.622 141.624 628.817 144.184C630.097 146.659 631.462 148.451 632.913 149.56H657.105ZM670.844 134.456V111.032H662.012V97.592H670.844V79.8H687.868V97.592H698.364V111.032H687.868V138.552C687.868 143.757 688.764 147.427 690.556 149.56H698.364V163H680.188C675.665 158.819 672.935 154.296 671.996 149.432C671.228 145.336 670.844 140.344 670.844 134.456ZM712.029 97.592H740.317V111.032H720.349L732.509 129.08C737.97 136.845 741 142.179 741.597 145.08C741.938 146.445 742.109 147.853 742.109 149.304C742.109 155.363 739.848 159.928 735.325 163H702.685V149.56H726.109L712.413 129.464C711.816 128.525 710.877 127.203 709.597 125.496C708.402 123.789 707.464 122.424 706.781 121.4C706.098 120.291 705.629 119.48 705.373 118.968C705.117 118.456 704.776 117.816 704.349 117.048C703.922 116.195 703.624 115.469 703.453 114.872C703.112 113.251 702.941 111.928 702.941 110.904C702.941 104.675 705.97 100.237 712.029 97.592Z" fill="#075EF0"/>
<g clip-path="url(#clip0_417_23)">
<path d="M174.156 50.4567H125.756V75.0567H99.9053L150.192 133.7L200 74.5783H174.156V50.4567ZM36 146.943H61.8437V171.543H110.244V146.943H136.095L86.2797 88.2928L36 146.943Z" fill="#075EF0"/>
</g>
<defs>
<clipPath id="clip0_417_23">
<rect width="164" height="164" fill="white" transform="translate(36 29)"/>
</clipPath>
</defs>
</svg>
